<svg id="visual" viewBox="0 0 900 450" width="900" height="450" xmlns="http://www.w3.org/2000/svg" xmlns:xlink="http://www.w3.org/1999/xlink" version="1.1"><rect x="0" y="0" width="900" height="450" fill="#15182B"></rect><defs><linearGradient id="grad1_0" x1="50%" y1="0%" x2="100%" y2="100%"><stop offset="10%" stop-color="#15182b" stop-opacity="1"></stop><stop offset="90%" stop-color="#15182b" stop-opacity="1"></stop></linearGradient></defs><defs><linearGradient id="grad2_0" x1="0%" y1="0%" x2="50%" y2="100%"><stop offset="10%" stop-color="#15182b" stop-opacity="1"></stop><stop offset="90%" stop-color="#15182b" stop-opacity="1"></stop></linearGradient></defs><g transform="translate(900, 0)"><path d="M0 247.5C-48.4 244 -96.8 240.5 -123.7 214.3C-150.7 188.2 -156.2 139.5 -173.2 100C-190.3 60.5 -218.9 30.3 -247.5 0L0 0Z" class="side-1" fill="#5d6072"></path></g><g transform="translate(0, 450)"><path d="M0 -247.5C31.3 -220.7 62.6 -193.9 102 -176.7C141.4 -159.4 188.8 -151.6 214.3 -123.8C239.9 -95.9 243.7 -47.9 247.5 0L0 0Z" class="side-2" fill="#5d6072"></path></g></svg>