<svg id="visual" viewBox="0 0 900 450" width="900" height="450" xmlns="http://www.w3.org/2000/svg" xmlns:xlink="http://www.w3.org/1999/xlink" version="1.1"><rect x="0" y="0" width="900" height="450" fill="#15182B"></rect><defs><linearGradient id="grad1_0" x1="50%" y1="100%" x2="100%" y2="0%"><stop offset="10%" stop-color="#15182b" stop-opacity="1"></stop><stop offset="90%" stop-color="#15182b" stop-opacity="1"></stop></linearGradient></defs><defs><linearGradient id="grad2_0" x1="0%" y1="100%" x2="50%" y2="0%"><stop offset="10%" stop-color="#15182b" stop-opacity="1"></stop><stop offset="90%" stop-color="#15182b" stop-opacity="1"></stop></linearGradient></defs><g transform="translate(900, 450)"><path d="M-247.5 0C-229.8 -28.7 -212.1 -57.5 -195.9 -81.1C-179.6 -104.8 -164.9 -123.3 -149.9 -149.9C-134.9 -176.5 -119.7 -211.1 -94.7 -228.7C-69.7 -246.3 -34.8 -246.9 0 -247.5L0 0Z" fill="#5D6072"></path></g><g transform="translate(0, 0)"><path d="M247.5 0C243.4 31.2 239.3 62.4 228.7 94.7C218 127.1 200.8 160.6 173.2 173.2C145.7 185.9 107.9 177.7 77.3 186.6C46.7 195.5 23.4 221.5 0 247.5L0 0Z" fill="#5D6072"></path></g></svg>